<?xml version="1.0" encoding="UTF-8" standalone="no"?>
<svg
   xmlns:dc="http://purl.org/dc/elements/1.1/"
   xmlns:cc="http://creativecommons.org/ns#"
   xmlns:rdf="http://www.w3.org/1999/02/22-rdf-syntax-ns#"
   xmlns:svg="http://www.w3.org/2000/svg"
   xmlns="http://www.w3.org/2000/svg"
   xmlns:xlink="http://www.w3.org/1999/xlink"
   xmlns:sodipodi="http://sodipodi.sourceforge.net/DTD/sodipodi-0.dtd"
   xmlns:inkscape="http://www.inkscape.org/namespaces/inkscape"
   width="666.04004"
   height="666.14001"
   version="1.1"
   id="svg3847"
   sodipodi:docname="favicon.svg"
   inkscape:version="0.92.5 (2060ec1f9f, 2020-04-08)">
  <metadata
     id="metadata3851">
    <rdf:RDF>
      <cc:Work
         rdf:about="">
        <dc:format>image/svg+xml</dc:format>
        <dc:type
           rdf:resource="http://purl.org/dc/dcmitype/StillImage" />
        <dc:title></dc:title>
      </cc:Work>
    </rdf:RDF>
  </metadata>
  <sodipodi:namedview
     pagecolor="#ffffff"
     bordercolor="#666666"
     borderopacity="1"
     objecttolerance="10"
     gridtolerance="10"
     guidetolerance="10"
     inkscape:pageopacity="0"
     inkscape:pageshadow="2"
     inkscape:window-width="1366"
     inkscape:window-height="704"
     id="namedview3849"
     showgrid="false"
     fit-margin-left="-0.1"
     fit-margin-top="0"
     fit-margin-right="0"
     fit-margin-bottom="0"
     inkscape:zoom="0.6575"
     inkscape:cx="341.33503"
     inkscape:cy="333.07001"
     inkscape:window-x="0"
     inkscape:window-y="27"
     inkscape:window-maximized="1"
     inkscape:current-layer="svg3847" />
  <defs
     id="defs3822">
    <linearGradient
       id="f"
       x1="-29.195999"
       x2="29.809999"
       y1="-89.150002"
       y2="-136.02"
       gradientTransform="matrix(1.7742,0,0,1.7787,197.17001,442.19001)"
       gradientUnits="userSpaceOnUse">
      <stop
         stop-color="#0000b5"
         offset="0"
         id="stop3802" />
      <stop
         stop-color="#99f"
         offset="1"
         id="stop3804" />
    </linearGradient>
    <radialGradient
       id="c"
       cx="-13.352"
       cy="-113.13"
       r="62.02"
       gradientTransform="matrix(0.92132,0,0,0.92132,455.73,644.92)"
       gradientUnits="userSpaceOnUse">
      <stop
         stop-color="#fff"
         offset="0"
         id="stop3807" />
      <stop
         stop-color="#fff"
         stop-opacity="0"
         offset="1"
         id="stop3809" />
    </radialGradient>
    <linearGradient
       id="e"
       x1="-29.195999"
       x2="29.809999"
       y1="-89.150002"
       y2="-136.02"
       gradientTransform="matrix(1.7742,0,0,1.7787,356.67001,718.39001)"
       gradientUnits="userSpaceOnUse">
      <stop
         stop-color="#0a0"
         offset="0"
         id="stop3812" />
      <stop
         stop-color="#0f0"
         offset="1"
         id="stop3814" />
    </linearGradient>
    <linearGradient
       id="d"
       x1="-29.195999"
       x2="29.809999"
       y1="-89.150002"
       y2="-136.02"
       gradientTransform="matrix(1.7742,0,0,1.7787,516.27001,442.19001)"
       gradientUnits="userSpaceOnUse">
      <stop
         stop-color="#cb0000"
         offset="0"
         id="stop3817" />
      <stop
         stop-color="#ffaeae"
         offset="1"
         id="stop3819" />
    </linearGradient>
    <radialGradient
       inkscape:collect="always"
       xlink:href="#c"
       id="radialGradient3855"
       gradientUnits="userSpaceOnUse"
       gradientTransform="matrix(0.92132,0,0,0.92132,388.70001,577.99001)"
       cx="-13.352"
       cy="-113.13"
       r="62.02" />
  </defs>
  <circle
     cx="332.97"
     cy="333.07001"
     r="333.07001"
     id="circle3824"
     style="fill:#cccccc" />
  <circle
     cx="492.56998"
     cy="240.94"
     r="109.54"
     id="circle3826"
     style="fill:url(#d)" />
  <circle
     cx="332.97"
     cy="517.19"
     r="109.54"
     id="circle3828"
     style="fill:url(#e)" />
  <circle
     cx="173.47"
     cy="240.94"
     r="109.54"
     id="circle3830"
     style="fill:url(#f)" />
  <circle
     id="g"
     cx="376.39999"
     cy="473.76001"
     r="66.113998"
     style="fill:url(#radialGradient3855)" />
  <path
     id="a"
     d="m 400.47001,258.44001 c 0,0 -3.0761,-7.464 -6.9646,-17.496 -3.8885,-10.032 -7.778,-20.067 -12.207,-20.067 -4.4285,-3e-4 -8.3181,10.034 -12.207,20.068 -3.8892,10.034 -7.7788,20.068 -12.207,20.069 -4.4285,3e-4 -8.3181,-10.034 -12.208,-20.069 -3.8893,-10.034 -7.7789,-20.068 -12.208,-20.069 -4.4285,0 -8.3181,10.035 -12.207,20.069 -3.8892,10.034 -7.7788,20.068 -12.207,20.068 -4.4286,0 -8.3182,-10.034 -12.207,-20.067 -3.8885,-10.032 -7.778,-20.067 -12.207,-20.067 -4.4285,0 -8.3181,10.034 -12.207,20.068 -3.8892,10.034 -5.9758,17.131 -5.9758,17.131"
     inkscape:connector-curvature="0"
     style="fill:none;stroke:#fdffbd;stroke-width:10;stroke-linecap:round;stroke-linejoin:round" />
  <use
     transform="translate(159.6,-276.25)"
     xlink:href="#g"
     id="use3834"
     x="0"
     y="0"
     width="100%"
     height="100%" />
  <use
     transform="translate(319.16,-0.00123532)"
     xlink:href="#b"
     id="use3836"
     x="0"
     y="0"
     width="100%"
     height="100%" />
  <use
     transform="rotate(120,332.87001,332.90001)"
     xlink:href="#a"
     id="use3838"
     x="0"
     y="0"
     width="100%"
     height="100%" />
  <use
     transform="rotate(-120,333.12001,332.89001)"
     xlink:href="#a"
     id="use3840"
     x="0"
     y="0"
     width="100%"
     height="100%" />
  <path
     d="m 353.27001,501.39001 v -34.119 q 0,-5.9377 -1.3147,-7.4459 -1.315,-1.508 -6.0107,-1.508 h -8.0769 v -5.655 q 16.717,-1.131 31.18,-6.9746 l 1.6905,1.1311 q -0.6575,9.6135 -1.1269,23.186 l -0.3757,25.071 -0.1879,8.1055 v 56.268 q 0,15.74 0.9391,17.531 1.4089,2.5447 7.7951,3.393 l 6.668,0.8483 v 5.5607 q -11.552,-0.8482 -20.38,-0.8482 -1.5966,0 -11.834,0.8482 0.6574,-6.409 1.0331,-18.19 -7.9829,6.2205 -20.38,17.436 -7.9828,2.6389 -14.087,2.6389 -15.872,0 -26.578,-11.97 -10.706,-11.97 -10.706,-32.045 0,-12.535 4.1324,-21.395 4.1321,-8.8596 9.8611,-12.818 5.7289,-4.0529 17.844,-10.179 9.2978,-4.6184 17.187,-4.6184 5.3532,0 10.988,1.4139 5.7289,1.4137 11.74,4.3354 z m 0,16.211 q -6.4803,-6.9745 -13.524,-10.462 -6.9498,-3.4873 -14.557,-3.4873 -12.303,0 -19.816,9.0481 -7.5133,8.9539 -7.5133,26.296 0,17.625 8.5464,27.71 8.6402,9.9905 20.943,9.9905 7.5133,0 13.806,-4.1471 6.2923,-4.2412 9.2036,-10.933 2.9115,-6.6918 2.9115,-21.018 z"
     id="path3842"
     inkscape:connector-curvature="0"
     style="fill:#f9f9f9;stroke:#666666;stroke-width:3" />
  <use
     transform="translate(-159.5,-276.25)"
     xlink:href="#g"
     id="use3844"
     x="0"
     y="0"
     width="100%"
     height="100%" />
  <path
     id="b"
     d="m 194.87001,285.71001 1.127,-16.965 -5.5411,6.0321 q -6.4801,7.0688 -13.242,9.9905 -6.6681,2.8275 -16.529,2.8275 -8.4524,0 -14.557,-3.5815 -6.1044,-3.5815 -8.922,-9.2365 -2.7235,-5.7493 -2.7235,-18.096 0,-6.4092 0.2818,-14.892 l 0.2816,-15.174 q 0,-15.928 -0.9391,-17.719 -0.8453,-1.7908 -5.9168,-1.7908 h -8.3584 v -5.1838 q 12.773,-1.131 23.573,-4.7125 l 7.795,-2.9217 q 1.5965,0 1.5965,2.3562 l -0.6573,9.6137 q -1.3148,19.981 -1.3148,37.135 0,17.154 1.4087,21.961 1.4087,4.7125 5.9166,7.917 4.5081,3.1104 10.988,3.1104 8.7341,0 15.966,-5.6551 7.3255,-5.6551 9.5795,-11.404 1.2208,-3.2988 1.2208,-19.887 0,-27.898 -1.033,-30.349 -0.9392,-1.9793 -8.4524,-1.9793 h -7.4194 v -5.1838 q 9.6733,-1.131 16.435,-2.6389 6.7621,-1.508 14.275,-4.5241 0.9392,-0.47113 1.6904,-0.47113 1.5968,0 1.5968,1.7908 l -0.3757,8.7653 q -1.4087,32.234 -1.4087,56.739 0,13.761 1.4087,15.74 2.0662,2.9217 8.922,2.9217 h 5.4471 v 5.4666 q -11.74,-0.65965 -19.91,-0.65965 -6.1046,0 -12.209,0.65965 z"
     inkscape:connector-curvature="0"
     style="fill:#f9f9f9;stroke:#666666;stroke-width:3" />
</svg>
