<?xml version="1.0" encoding="UTF-8" standalone="no"?>
<svg
   xmlns:dc="http://purl.org/dc/elements/1.1/"
   xmlns:cc="http://creativecommons.org/ns#"
   xmlns:rdf="http://www.w3.org/1999/02/22-rdf-syntax-ns#"
   xmlns:svg="http://www.w3.org/2000/svg"
   xmlns="http://www.w3.org/2000/svg"
   xmlns:sodipodi="http://sodipodi.sourceforge.net/DTD/sodipodi-0.dtd"
   xmlns:inkscape="http://www.inkscape.org/namespaces/inkscape"
   width="376.13062pt"
   height="329.41718pt"
   version="1.1"
   viewBox="0 0 376.13061 329.41717"
   id="svg80"
   sodipodi:docname="favicon.svg"
   inkscape:version="0.92.5 (2060ec1f9f, 2020-04-08)">
  <metadata
     id="metadata86">
    <rdf:RDF>
      <cc:Work
         rdf:about="">
        <dc:format>image/svg+xml</dc:format>
        <dc:type
           rdf:resource="http://purl.org/dc/dcmitype/StillImage" />
        <dc:title></dc:title>
      </cc:Work>
    </rdf:RDF>
  </metadata>
  <defs
     id="defs84" />
  <sodipodi:namedview
     pagecolor="#ffffff"
     bordercolor="#666666"
     borderopacity="1"
     objecttolerance="10"
     gridtolerance="10"
     guidetolerance="10"
     inkscape:pageopacity="0"
     inkscape:pageshadow="2"
     inkscape:window-width="1366"
     inkscape:window-height="704"
     id="namedview82"
     showgrid="false"
     inkscape:zoom="0.58285714"
     inkscape:cx="284.20961"
     inkscape:cy="17.488211"
     inkscape:window-x="0"
     inkscape:window-y="27"
     inkscape:window-maximized="1"
     inkscape:current-layer="g78"
     fit-margin-top="0"
     fit-margin-left="0"
     fit-margin-right="0"
     fit-margin-bottom="0" />
  <g
     id="g78"
     transform="translate(-143.92,-33.698996)">
    <path
       d="M 143.92,33.698996 H 520.05059 V 63.692729 H 143.92 Z"
       id="path68"
       style="fill:#748e85;fill-opacity:1;stroke-width:0.82393205"
       inkscape:connector-curvature="0" />
    <path
       d="M 176.62701,75.858145 H 487.34358 V 107.51745 H 176.62701 Z"
       id="path70"
       style="fill:#748e85;fill-opacity:1;stroke-width:0.82393205"
       inkscape:connector-curvature="0" />
    <path
       d="m 176.62701,171.65587 h 310.71657 v 31.65931 H 176.62701 Z"
       id="path72"
       style="fill:#748e85;fill-opacity:1;stroke-width:0.82393205"
       inkscape:connector-curvature="0" />
    <path
       d="m 214.44449,106.17989 v 7.42821 c 0,24.57194 -23.50999,28.00008 -23.50999,52.57252 v 7.42822 h 281.07585 v -7.42822 c 0,-24.57194 -23.50999,-28.00007 -23.50999,-52.57252 v -7.42821 z"
       id="path74"
       style="fill:#748e85;fill-opacity:1;stroke-width:0.68235892"
       inkscape:connector-curvature="0" />
    <path
       d="m 198.09098,363.11617 h 42.92704 V 245.64072 c 0,-4.16698 5.11193,-8.33085 10.22002,-8.33085 6.13147,0 10.22003,4.16699 10.22003,8.33085 v 117.47545 h 33.73002 V 245.64072 c 0,-4.16698 5.11193,-8.33085 10.22002,-8.33085 6.13147,0 10.22003,4.16699 10.22003,8.33085 v 117.47545 h 33.73001 V 245.64072 c 0,-4.16698 5.11193,-8.33085 10.22003,-8.33085 6.13147,0 10.22003,4.16699 10.22003,8.33085 l 0.004,117.47545 h 33.73001 l -0.004,-117.47545 c 0,-4.16698 5.11193,-8.33085 10.22003,-8.33085 6.13147,0 10.22003,4.16699 10.22003,8.33085 l 0.004,117.47545 h 42.92703 V 220.64594 H 198.08824 Z"
       id="path76"
       style="fill:#748e85;fill-opacity:1;stroke-width:0.82393205"
       inkscape:connector-curvature="0" />
  </g>
</svg>
