<?xml version="1.0" encoding="UTF-8" standalone="no"?>
<svg
   xmlns:dc="http://purl.org/dc/elements/1.1/"
   xmlns:cc="http://creativecommons.org/ns#"
   xmlns:rdf="http://www.w3.org/1999/02/22-rdf-syntax-ns#"
   xmlns:svg="http://www.w3.org/2000/svg"
   xmlns="http://www.w3.org/2000/svg"
   xmlns:sodipodi="http://sodipodi.sourceforge.net/DTD/sodipodi-0.dtd"
   xmlns:inkscape="http://www.inkscape.org/namespaces/inkscape"
   width="410.81354pt"
   height="375.96191pt"
   version="1.1"
   viewBox="0 0 410.81354 375.96192"
   id="svg4666"
   sodipodi:docname="favicon2.svg"
   inkscape:version="0.92.5 (2060ec1f9f, 2020-04-08)">
  <metadata
     id="metadata4672">
    <rdf:RDF>
      <cc:Work
         rdf:about="">
        <dc:format>image/svg+xml</dc:format>
        <dc:type
           rdf:resource="http://purl.org/dc/dcmitype/StillImage" />
        <dc:title></dc:title>
      </cc:Work>
    </rdf:RDF>
  </metadata>
  <defs
     id="defs4670" />
  <sodipodi:namedview
     pagecolor="#ffffff"
     bordercolor="#666666"
     borderopacity="1"
     objecttolerance="10"
     gridtolerance="10"
     guidetolerance="10"
     inkscape:pageopacity="0"
     inkscape:pageshadow="2"
     inkscape:window-width="1366"
     inkscape:window-height="704"
     id="namedview4668"
     showgrid="false"
     fit-margin-top="0"
     fit-margin-left="0"
     fit-margin-right="0"
     fit-margin-bottom="0"
     inkscape:zoom="1.0114286"
     inkscape:cx="245.32234"
     inkscape:cy="234.57617"
     inkscape:window-x="0"
     inkscape:window-y="27"
     inkscape:window-maximized="1"
     inkscape:current-layer="layer3" />
  <g
     inkscape:groupmode="layer"
     id="layer3"
     inkscape:label="Layer 2"
     style="opacity:0.41100003"
     transform="translate(18.913136,13.874784)">
    <rect
       style="fill:#e6e6e6;fill-opacity:1;stroke:none;stroke-width:0.75;stroke-opacity:1"
       id="rect67"
       width="410.06354"
       height="375.21191"
       x="-18.538136"
       y="-13.499784"
       ry="45.233051"
       rx="0" />
  </g>
  <g
     inkscape:groupmode="layer"
     id="layer2"
     inkscape:label="Layer 1"
     style="display:inline;opacity:1"
     sodipodi:insensitive="true"
     transform="translate(18.913136,13.874784)">
    <g
       id="g4664"
       transform="translate(-162.90079,-57.469)">
      <path
         d="m 174.1,57.477 c -2.9336,0 -5.8477,1.207 -7.9219,3.2812 -2.0742,2.0742 -3.2812,4.9883 -3.2773,7.9219 v 51.195 c 0,2.9297 1.207,5.8438 3.2812,7.918 2.0742,2.0742 4.9883,3.2812 7.918,3.2812 h 26.082 c -1.8086,4.6211 -2.7031,9.5312 -2.7031,14.398 0,8.8438 2.832,17.844 9.0547,24.965 6.2188,7.1211 16.062,11.832 27.297,11.832 h 28.09 v 215.72 c -0.0977,9.9453 5.0586,12.773 13.004,13.035 h 149.95 c 9.5664,-0.11328 13.145,-3.5234 13.027,-13.023 v -215.74 h 28.289 c 11.234,0 21.082,-4.7109 27.301,-11.832 6.219,-7.1211 9.0469,-16.121 9.0469,-24.965 0,-4.8672 -0.89062,-9.7773 -2.6992,-14.398 h 26.074 c 2.9297,0 5.8438,-1.207 7.918,-3.2812 2.0742,-2.0742 3.2812,-4.9844 3.2812,-7.918 v -51.195 c 0,-2.9336 -1.207,-5.8477 -3.2773,-7.9219 -2.0742,-2.0742 -4.9883,-3.2812 -7.9219,-3.2812 h -351.81 z m 11.199,22.402 h 329.41 v 28.789 c -112.66,0.0156 -231.82,0 -329.41,0 z m 48.527,51.195 h 232.36 c 5.5352,0 8.2656,1.6875 10.43,4.168 2.1641,2.4766 3.5234,6.2773 3.5234,10.23 0,3.9527 -1.3594,7.7461 -3.5234,10.227 -2.1641,2.4766 -4.8945,4.168 -10.43,4.168 h -232.36 c -5.5352,0 -8.2617,-1.6875 -10.422,-4.168 -2.1641,-2.4766 -3.5273,-6.2695 -3.5273,-10.227 0,-3.9531 1.3633,-7.7539 3.5273,-10.23 2.1641,-2.4766 4.8906,-4.168 10.422,-4.168 z m 50.488,51.195 h 28.797 v 206.36 h -28.797 z m 51.195,0 h 28.797 v 206.36 h -28.797 z m 51.195,0 h 28.797 v 206.36 h -28.797 z"
         id="path4662"
         inkscape:connector-curvature="0"
         style="fill:#4d4d4d;fill-rule:evenodd"
         sodipodi:nodetypes="cscssscscsccccccssscsssscscccccccsscscsscscsccccccccccccccc" />
    </g>
  </g>
</svg>
